<svg id="Capa_1" data-name="Capa 1" xmlns="http://www.w3.org/2000/svg" viewBox="0 0 375.89 81.26">
  <path fill="#FF0" d="m32.25,54.38c2.19-.46,4.27-.93,6.1-1.5.34-.09.74-.13,1.04-.12-.15-.19.25-.42,1.03-.61,15.53-3.65,32.37-6.43,48.93-9.41.09-.18.29-.36.65-.56,1.09-.65,3.37-1.2,5.79-1.41l1.83-.1c7.36-.63,14.69-1.31,22.01-1.91,1.46-.42,3.17-.79,5.04-1.07,6.22-1.41,12.46-2.8,18.86-4.06-.42-.09-.69-.22-.71-.4.07-.45,1.53-.96,3.27-1.16.88-.12,1.76-.24,2.63-.36-2.54.21-5.08.42-7.61.61-.36.04-.7.05-1.02.05-2.77.33-5.57.69-8.41,1.09-24.78,3.5-47.93,8.07-70.86,12.86-.37.12-.97.18-1.32.12-.24-.07-.22-.22.2-.33,14.33-4,26.61-8.45,42.94-11.94,19.44-4.17,38.66-8.03,58.66-11.65,21.06-2.64,40.42-6.12,61.8-9.59,28.88-4.7,56.27-8.3,84.64-11.96,10.59-1.68,20.56-1.09,22.26,1.28.99,1.45-1.23,3.21-5.48,4.76.87-.1,1.73-.2,2.6-.29l4.15-.21c3.93-.18,7.33.04,9.53.64l3.01.71c4.08,1.56,10.5,2.49,13.9,4.23l-.6.89.77.14c2.52.28,4.26.84,4.94,1.59l-.11,1c-.37,1.18-1.47,2.37-3.31,3.6.12.4-.07.84-.53,1.28,1.8.79,2.72,1.73,1.54,3.05,1.04.16.93.61-.24,1-.4.13-.9.25-1.4.33,0,0,.01,0,.01,0,.58.18.76.24,1.54.43,1.01-.04,1.6-.05,1.6-.05q2.69-.16,5.02-.29c2.03.09,3.32.41,3.32.41q2.42,1.46,2.17,2.25c-.12.09-.26.18-.4.27,1.79.03,1.92.03,2.4.05.51.07.87.18.87.18q.13.39.45.5c.12.14.11.29.11.29q-.93.57-.94.7c-.22.15-.53.29-.53.29-1.13.28-1.59.39-1.78.44-2.6-.73-2.61-.73-2.61-.73l-.49.43-.64-.41.38.4-1.28-.11,1.48.21q-2.97.21-4.16.37c-1.24.1-2.28.34-2.4.36.12.12.14.22.14.22q-3.18.23-6.28.42c-.3-.06-.54-.13-.76-.2-.28.16-.86.3-1.47.34-.54.04-1.09.08-1.63.13-.12.04-.23.07-.34.1,0,.02,0,.03,0,.03-.54.15-.91.26-1.34.38-.27.08-.28.09-.28.09,0,0-.01,0-.02,0-.92.26-2.26.64-5.79,1.63-.96.07-1.86.11-2.71.13.28.03.55.06.81.1.52.08.11.52.39.52,6.85-.02,14.24-.61,21.54-1.08,1.29-.21,2.54-.13,2.77.16.21.3-.68.7-2.01.91-14.43,3.92-32.5,5.89-47.8,6.13-4,.29-8.01.62-12.04.96.2.04.4.08.6.12-1.05.03-2.1.06-3.15.09-.11,0-.23.02-.34.03.82.14,1.63.27,2.44.41.55,0,1.1,0,1.66,0,9.33-.87,17.89-.83,26.96-1.26,4.87-.23,9.1-.07,13.72-.14,1.18-.11,2.02.04,1.92.35-.1.29-1.17.63-2.32.74-15.16,2.4-32.58,4.12-45.07,3.24-2.78.33-5.48.47-7.76.32-.04,0-.09,0-.13,0,.61.12,1.18.25,1.78.37-2.1.11-3.26-.23-5.18-.2.25.24.55.47.8.71-10.31.78-21.37,2.4-31,2.43-.38.03-.74.05-1.1.07-4.02,1.07-8.08,2.13-12.92,2.81,1.65-.12,3.26-.24,4.92-.35-3.47.79-6.93,1.46-10.7,1.89-10.2,1.2-21.77,1.39-27.42-.03-19.73,2.73-39.49,5.41-59.13,8.39-1.01.16-1.95.11-2.16-.11-.13-.22.51-.54,1.52-.7,14.04-2.6,28.32-4.84,42.65-7.01-12.06,1.09-24.18,2.21-36.51,3.67-1.56.23-3.14.46-4.71.7-1.56.23-3.12.36-4.67.46-15.73,1.96-30.67,3.7-46.64,6.3-13.64,2.23-25.56,4.28-39.11,6.73-19.03,3.45-36.35,6.69-55.29,9.07-2.51.39-4.9.24-5.27-.33-.38-.57,1.38-1.36,3.89-1.75,39.25-6.83,77.73-13.97,119.05-18.84,4.46-.52,8.84-1.04,13.2-1.54-.07-.08-.13-.15-.14-.23-.04-.33.33-.69,1-1.03-4.96.54-9.96,1.03-14.99,1.48-13.83,2.44-27.67,4.88-42.56,6.39-10.22,1.02-19.53,1.46-29.04,1.98-11.89,1.87-23.74,3.85-35.76,5.68-.48.1-.98.1-1.17,0-.19-.1.06-.25.54-.35,8.2-1.79,16.62-3.43,25.14-5.01-1.4-.21-2.27-.6-2.23-1.15.04-.57,1.02-1.2,2.58-1.76-1.95.23-3.89.47-5.84.69-1.2.13-2.18.03-2.18-.25-.01-.31.92-.64,2.06-.78,7.94-.96,15.86-1.91,23.78-2.86,9.47-1.5,18.9-2.95,28.4-4.36-1.37-.2-2.39-.53-2.92-.99,0,0,0,0,0,0-1.47.2-2.94.4-4.4.59-26.7,4.93-54.13,9.25-81.92,12.42-.54.07-1,.03-1.03-.1-.03-.13.38-.29.87-.34,8.39-.96,16.75-2.02,25.06-3.17-.01,0-.02,0-.04,0-.35-.03-.43-.17-.07-.31.31-.12.97-.21,1.31-.17.4.04.38.19.08.31,15.49-2.16,30.84-4.62,45.94-7.31-14.11,1.9-28.24,3.75-42.38,5.27-1.52.35-3.03.71-4.58,1.06-.42.08-.99.08-1.17-.02-.13-.09.16-.26.6-.34.43-.09.85-.19,1.28-.28-2.68.28-4.81,0-4.85-.66.06-.7,2.29-1.51,5.07-1.83,7.42-1.06,14.81-2.06,22.21-3.02.8-.14,1.59-.28,2.39-.42.8-.21,1.58-.41,2.38-.62-11.55,1.18-23.08,2.3-34.55,3.39-.98.13-1.84.04-1.89-.19-.05-.23.72-.53,1.7-.66,20.01-3.47,40.32-6.67,60.73-9.67,6.59-1.86,13.2-3.74,19.94-5.62-.87.09-1.74.19-2.62.3-22.25,2.79-40.77,8.06-62.25,11.36-.54.1-1,.05-1.08-.06-.07-.11.28-.28.83-.35,10.47-1.72,19.94-3.91,30.28-5.92,8.57-1.67,16.72-3.23,24.66-5.01-16.39,2.33-31.97,5.57-48.17,8.17-.7.14-1.43.18-1.9.11-.03.07-.17.15-.38.22-1.99.58-4.18,1.09-6.42,1.57-.43.11-.98.13-1.23.03-.24-.07.01-.23.48-.36Z"/>
</svg>